<svg xmlns="http://www.w3.org/2000/svg" xmlns:xlink="http://www.w3.org/1999/xlink">

  <symbol id="e" fill="none" viewBox="0 0 200 35" xmlns="http://www.w3.org/2000/svg">
    <path
      d="M19.1998 55.2008H40.7998C48.7522 55.2008 55.1998 48.7532 55.1998 40.8008V19.2008C55.1998 11.2484 48.7522 4.80078 40.7998 4.80078H19.1998C11.2474 4.80078 4.7998 11.2484 4.7998 19.2008V40.8008C4.7998 48.7532 11.2474 55.2008 19.1998 55.2008Z"
      stroke-width="4" stroke-miterlimit="10" />
    <path
      d="M30 18C26.8174 18 23.7652 19.2643 21.5147 21.5147C19.2643 23.7652 18 26.8174 18 30C18 33.1826 19.2643 36.2348 21.5147 38.4853C23.7652 40.7357 26.8174 42 30 42C33.1826 42 36.2348 40.7357 38.4853 38.4853C40.7357 36.2348 42 33.1826 42 30C42 26.8174 40.7357 23.7652 38.4853 21.5147C36.2348 19.2643 33.1826 18 30 18Z"
      stroke-width="4" stroke-miterlimit="10" />
    <path
      d="M44.4 13.1992C43.7635 13.1992 43.153 13.4521 42.7029 13.9022C42.2529 14.3522 42 14.9627 42 15.5992C42 16.2357 42.2529 16.8462 42.7029 17.2963C43.153 17.7464 43.7635 17.9992 44.4 17.9992C45.0365 17.9992 45.647 17.7464 46.0971 17.2963C46.5471 16.8462 46.8 16.2357 46.8 15.5992C46.8 14.9627 46.5471 14.3522 46.0971 13.9022C45.647 13.4521 45.0365 13.1992 44.4 13.1992Z" />
  </symbol>

  <symbol id="logo" viewBox="0 0 305 74" xmlns="http://www.w3.org/2000/svg">
    <mask id="mask0_1116_185" style="mask-type:luminance" maskUnits="userSpaceOnUse" x="0" y="0">
      <path d="M50 0H0V74H50V0Z" />
    </mask>
    <g mask="url(#mask0_1116_185)">
      <path
        d="M25.9083 -5.73216e-05C23.1091 0.000748212 20.4248 1.10045 18.4454 3.05731C16.4661 5.01416 15.3538 7.66802 15.3529 10.4354V15.176H10.5578C9.17068 15.1749 7.7969 15.4442 6.51511 15.9685C5.23333 16.4928 4.0687 17.2619 3.08785 18.2317C2.10701 19.2014 1.3292 20.3529 0.798933 21.6201C0.268667 22.8874 -0.00364963 24.2456 -0.00243689 25.617V36.0488H15.3505V45.5301H10.5554C7.75537 45.5297 5.06987 46.6289 3.08951 48.5859C1.10914 50.5428 -0.00393524 53.1971 -0.00491333 55.9654V73.9943H10.5603C11.9462 73.9938 13.3183 73.7233 14.5984 73.198C15.8784 72.6732 17.0413 71.904 18.0207 70.9347C19.0001 69.9654 19.7767 68.8148 20.3063 67.5485C20.8358 66.2821 21.1079 64.9256 21.1071 63.5556H21.1206V56.6678L21.0923 56.6715V12.7905L21.1157 12.796V10.4372C21.1181 9.17949 21.6237 7.97376 22.5221 7.08321C23.4204 6.19265 24.6386 5.68961 25.9108 5.68383H44.2484V10.4372C44.2445 11.6944 43.7372 12.8989 42.8374 13.7872C41.9377 14.6756 40.7187 15.1756 39.4471 15.1779H23.2858V20.8678H39.4446C42.2438 20.868 44.9285 19.7688 46.9079 17.8122C48.8875 15.8555 49.9997 13.2016 50 10.4342V-0.0012722L25.9083 -5.73216e-05ZM15.3529 30.3582H5.75905V25.6176C5.76116 24.3584 6.26732 23.1512 7.167 22.2598C8.06663 21.3684 9.28663 20.8653 10.5603 20.8605H15.3554L15.3529 30.3582ZM15.3529 63.5608C15.3508 64.8178 14.8451 66.0231 13.9465 66.9122C13.0478 67.8017 11.8294 68.303 10.5578 68.3062H5.75658V55.9685C5.75774 54.7105 6.26416 53.5046 7.16447 52.6156C8.06484 51.7265 9.28537 51.2274 10.5578 51.2279H15.3529V63.5608ZM23.2858 36.0482H35.3965V40.7936C35.3918 42.0506 34.8842 43.2546 33.9846 44.1428C33.0851 45.031 31.8666 45.5313 30.5952 45.5343H23.2858V51.2279H30.5977C31.9841 51.2286 33.3569 50.9592 34.6379 50.435C35.9188 49.9109 37.0828 49.1422 38.0631 48.1731C39.0434 47.2039 39.8208 46.0532 40.3511 44.7868C40.8813 43.5204 41.1538 42.1631 41.1531 40.7925H41.1579V30.357H23.2858V36.0482Z"
        fill="#A78BFA" />
    </g>
    <path
      d="M60.312 35.728H67.008V39.568H60.312V46H55.848V28.864H68.952V32.8H60.312V35.728ZM80.2939 33.52V37.384H78.9739C77.6619 37.384 76.7099 37.688 76.1179 38.296C75.5419 38.904 75.2539 39.8 75.2539 40.984V46H71.0779V33.52H75.1099V34.864H75.7819C76.2939 33.968 77.3579 33.52 78.9739 33.52H80.2939ZM88.5154 33.208C90.5314 33.208 92.1394 33.8 93.3394 34.984C94.5554 36.168 95.1634 37.76 95.1634 39.76C95.1634 41.76 94.5554 43.352 93.3394 44.536C92.1394 45.72 90.5314 46.312 88.5154 46.312C86.5154 46.312 84.8994 45.72 83.6674 44.536C82.4514 43.352 81.8434 41.76 81.8434 39.76C81.8434 37.76 82.4514 36.168 83.6674 34.984C84.8994 33.8 86.5154 33.208 88.5154 33.208ZM88.5154 42.904C89.3314 42.904 89.9474 42.616 90.3634 42.04C90.7794 41.448 90.9874 40.688 90.9874 39.76C90.9874 38.832 90.7794 38.08 90.3634 37.504C89.9474 36.912 89.3314 36.616 88.5154 36.616C87.6834 36.616 87.0594 36.912 86.6434 37.504C86.2274 38.08 86.0194 38.832 86.0194 39.76C86.0194 40.688 86.2274 41.448 86.6434 42.04C87.0594 42.616 87.6834 42.904 88.5154 42.904ZM112.677 33.208C114.181 33.208 115.309 33.656 116.061 34.552C116.813 35.432 117.189 36.672 117.189 38.272V46H113.013V39.136C113.013 38.384 112.893 37.816 112.653 37.432C112.413 37.048 112.005 36.856 111.429 36.856C110.805 36.856 110.341 37.072 110.037 37.504C109.733 37.936 109.581 38.504 109.581 39.208V46H105.405V39.136C105.405 38.384 105.285 37.816 105.045 37.432C104.805 37.048 104.397 36.856 103.821 36.856C103.181 36.856 102.709 37.096 102.405 37.576C102.117 38.04 101.973 38.648 101.973 39.4V46H97.7966V33.52H101.829V34.6H102.501C103.093 33.672 104.109 33.208 105.549 33.208C106.973 33.208 108.021 33.672 108.693 34.6H109.365C110.005 33.672 111.109 33.208 112.677 33.208ZM133.039 36.832V37.504C133.615 37.792 134.111 38.248 134.527 38.872C134.959 39.48 135.175 40.176 135.175 40.96C135.175 42.48 134.679 43.704 133.687 44.632C132.695 45.544 131.207 46 129.223 46H120.559V28.864H128.959C130.831 28.864 132.255 29.304 133.231 30.184C134.223 31.064 134.719 32.184 134.719 33.544C134.719 34.28 134.559 34.944 134.239 35.536C133.935 36.112 133.535 36.544 133.039 36.832ZM125.023 32.464V35.416H128.359C129.543 35.416 130.135 34.928 130.135 33.952C130.135 32.96 129.527 32.464 128.311 32.464H125.023ZM125.023 42.328H128.503C129.095 42.328 129.591 42.2 129.991 41.944C130.391 41.688 130.591 41.28 130.591 40.72C130.591 39.584 129.919 39.016 128.575 39.016H125.023V42.328ZM144.086 33.208C146.102 33.208 147.71 33.8 148.91 34.984C150.126 36.168 150.734 37.76 150.734 39.76C150.734 41.76 150.126 43.352 148.91 44.536C147.71 45.72 146.102 46.312 144.086 46.312C142.086 46.312 140.47 45.72 139.238 44.536C138.022 43.352 137.414 41.76 137.414 39.76C137.414 37.76 138.022 36.168 139.238 34.984C140.47 33.8 142.086 33.208 144.086 33.208ZM144.086 42.904C144.902 42.904 145.518 42.616 145.934 42.04C146.35 41.448 146.558 40.688 146.558 39.76C146.558 38.832 146.35 38.08 145.934 37.504C145.518 36.912 144.902 36.616 144.086 36.616C143.254 36.616 142.63 36.912 142.214 37.504C141.798 38.08 141.59 38.832 141.59 39.76C141.59 40.688 141.798 41.448 142.214 42.04C142.63 42.616 143.254 42.904 144.086 42.904ZM158.743 33.208C162.711 33.208 164.695 34.848 164.695 38.128V46H160.879V45.04H160.207C159.455 45.888 158.359 46.312 156.919 46.312C155.591 46.312 154.527 45.904 153.727 45.088C152.943 44.256 152.551 43.264 152.551 42.112C152.551 41.008 152.991 40.04 153.871 39.208C154.751 38.376 156.063 37.96 157.807 37.96H160.687V37.744C160.687 36.688 160.119 36.16 158.983 36.16C157.975 36.16 157.423 36.52 157.327 37.24H153.199C153.231 36.04 153.759 35.072 154.783 34.336C155.823 33.584 157.143 33.208 158.743 33.208ZM160.687 41.08V40.336H158.671C158.079 40.336 157.607 40.464 157.255 40.72C156.903 40.96 156.727 41.312 156.727 41.776C156.727 42.752 157.319 43.24 158.503 43.24C159.175 43.24 159.703 43.04 160.087 42.64C160.487 42.224 160.687 41.704 160.687 41.08ZM177.067 33.52V37.384H175.747C174.435 37.384 173.483 37.688 172.891 38.296C172.315 38.904 172.027 39.8 172.027 40.984V46H167.851V33.52H171.883V34.864H172.555C173.067 33.968 174.131 33.52 175.747 33.52H177.067ZM183.801 33.208C185.177 33.208 186.217 33.664 186.921 34.576H187.593V28.552H191.769V46H187.737V44.944H187.065C186.329 45.856 185.241 46.312 183.801 46.312C182.201 46.312 180.937 45.712 180.009 44.512C179.081 43.296 178.617 41.712 178.617 39.76C178.617 37.824 179.089 36.248 180.033 35.032C180.977 33.816 182.233 33.208 183.801 33.208ZM183.393 42.016C183.793 42.608 184.409 42.904 185.241 42.904C186.073 42.904 186.697 42.608 187.113 42.016C187.545 41.424 187.761 40.672 187.761 39.76C187.761 38.848 187.545 38.096 187.113 37.504C186.697 36.912 186.073 36.616 185.241 36.616C184.409 36.616 183.793 36.912 183.393 37.504C182.993 38.096 182.793 38.848 182.793 39.76C182.793 40.672 182.993 41.424 183.393 42.016ZM201.957 28.864H209.589C212.165 28.864 214.133 29.632 215.493 31.168C216.853 32.704 217.533 34.792 217.533 37.432C217.533 40.072 216.853 42.16 215.493 43.696C214.133 45.232 212.165 46 209.589 46H201.957V28.864ZM206.421 42.064H208.869C210.293 42.064 211.333 41.64 211.989 40.792C212.645 39.944 212.973 38.824 212.973 37.432C212.973 36.024 212.645 34.904 211.989 34.072C211.333 33.224 210.293 32.8 208.869 32.8H206.421V42.064ZM228.08 41.968H232.304C232.016 43.36 231.36 44.432 230.336 45.184C229.312 45.936 227.928 46.312 226.184 46.312C224.184 46.312 222.592 45.728 221.408 44.56C220.224 43.392 219.632 41.792 219.632 39.76C219.632 37.728 220.216 36.128 221.384 34.96C222.552 33.792 224.12 33.208 226.088 33.208C228.056 33.208 229.6 33.76 230.72 34.864C231.84 35.968 232.4 37.464 232.4 39.352V40.312H223.76C223.936 42.04 224.768 42.904 226.256 42.904C227.216 42.904 227.824 42.592 228.08 41.968ZM226.088 36.184C224.968 36.184 224.248 36.728 223.928 37.816H228.128C227.904 36.728 227.224 36.184 226.088 36.184ZM235.047 28.552H239.223V46H235.047V28.552ZM242.523 28.552H246.699V32.032H242.523V28.552ZM242.523 33.52H246.699V46H242.523V33.52ZM252.016 46L248.8 33.52H253L255.088 42.448H256.144L258.112 33.52H262.312L259.024 46H252.016ZM272.19 41.968H276.414C276.126 43.36 275.47 44.432 274.446 45.184C273.422 45.936 272.038 46.312 270.294 46.312C268.294 46.312 266.702 45.728 265.518 44.56C264.334 43.392 263.742 41.792 263.742 39.76C263.742 37.728 264.326 36.128 265.494 34.96C266.662 33.792 268.23 33.208 270.198 33.208C272.166 33.208 273.71 33.76 274.83 34.864C275.95 35.968 276.51 37.464 276.51 39.352V40.312H267.87C268.046 42.04 268.878 42.904 270.366 42.904C271.326 42.904 271.934 42.592 272.19 41.968ZM270.198 36.184C269.078 36.184 268.358 36.728 268.038 37.816H272.238C272.014 36.728 271.334 36.184 270.198 36.184ZM288.372 33.52V37.384H287.052C285.74 37.384 284.788 37.688 284.196 38.296C283.62 38.904 283.332 39.8 283.332 40.984V46H279.156V33.52H283.188V34.864H283.86C284.372 33.968 285.436 33.52 287.052 33.52H288.372ZM300.177 33.52H304.305L296.745 50.8H292.617L295.233 44.632L290.001 33.52H294.177L296.985 39.568H297.657L300.177 33.52Z"
       />
  </symbol>

  <symbol id="img" xmlns="http://www.w3.org/2000/svg" viewBox="0 0 75 75" fill="none">
    <path
      d="M33.5387 32.5893C33.5387 37.2321 32.8345 41.2202 31.426 44.5536C30.0176 48.006 28.1984 50.8036 25.9683 52.9464C23.7383 55.2083 21.2148 56.8155 18.3979 57.7679C15.4636 58.8393 12.588 59.375 9.77112 59.375L9.77112 53.125C12.8228 53.125 15.6983 52.0536 18.3979 49.9107C20.98 47.8869 22.5059 45.0893 22.9753 41.5179C22.6232 41.6369 22.2124 41.756 21.743 41.875C21.3908 41.9941 20.98 42.1131 20.5106 42.2321C19.9237 42.3512 19.2782 42.4107 18.5739 42.4107C15.0528 42.4107 12.1185 41.0417 9.77112 38.3036C7.4237 35.6845 6.24999 32.5893 6.24999 29.0179C6.24999 25.4464 7.48239 22.2917 9.94718 19.5536C12.2946 16.9345 15.4636 15.625 19.4542 15.625C23.9143 15.625 27.3767 17.2917 29.8415 20.625C32.3063 24.0774 33.5387 28.0655 33.5387 32.5893ZM68.75 32.5893C68.75 37.2321 68.0458 41.2202 66.6373 44.5536C65.2289 48.006 63.4096 50.8036 61.1796 52.9464C58.9495 55.2083 56.4261 56.8155 53.6092 57.7679C50.6749 58.8393 47.7993 59.375 44.9824 59.375L44.9824 53.125C48.034 53.125 50.9096 52.0536 53.6092 49.9107C56.1913 47.8869 57.7171 45.0893 58.1866 41.5179C57.8345 41.6369 57.4237 41.7559 56.9542 41.875C56.6021 41.994 56.1913 42.1131 55.7218 42.2321C55.135 42.3512 54.4894 42.4107 53.7852 42.4107C50.2641 42.4107 47.3298 41.0417 44.9824 38.3036C42.635 35.6845 41.4613 32.5893 41.4613 29.0179C41.4613 25.4464 42.6937 22.2917 45.1584 19.5536C47.5059 16.9345 50.6749 15.625 54.6655 15.625C59.1256 15.625 62.588 17.2917 65.0528 20.625C67.5176 24.0774 68.75 28.0655 68.75 32.5893Z"
      fill="#EDE9FE" />
  </symbol>

  <symbol id="smile" xmlns="http://www.w3.org/2000/svg" width="16" height="16" viewBox="0 0 16 16"
    fill="none">
    <path
      d="M9.57332 9.48659C9.12766 9.8459 8.57245 10.0418 7.99998 10.0418C7.42752 10.0418 6.8723 9.8459 6.42665 9.48659C6.2905 9.37343 6.11498 9.31898 5.9387 9.33524C5.76242 9.35149 5.59981 9.43711 5.48665 9.57325C5.37349 9.7094 5.31905 9.88492 5.3353 10.0612C5.35156 10.2375 5.43717 10.4001 5.57332 10.5133C6.25421 11.0817 7.11302 11.393 7.99998 11.393C8.88694 11.393 9.74576 11.0817 10.4267 10.5133C10.5628 10.4001 10.6484 10.2375 10.6647 10.0612C10.6809 9.88492 10.6265 9.7094 10.5133 9.57325C10.4573 9.50584 10.3885 9.45012 10.311 9.40929C10.2334 9.36845 10.1486 9.34329 10.0613 9.33524C9.88498 9.31899 9.70946 9.37343 9.57332 9.48659ZM6.13998 7.02659C6.26489 7.15075 6.43386 7.22045 6.60998 7.22045C6.78611 7.22045 6.95507 7.15075 7.07998 7.02659C7.20415 6.90168 7.27384 6.73271 7.27384 6.55659C7.27384 6.38046 7.20415 6.21149 7.07998 6.08659C6.69846 5.72458 6.19258 5.52277 5.66665 5.52277C5.14072 5.52277 4.63484 5.72458 4.25332 6.08659C4.18353 6.14635 4.12685 6.2199 4.08683 6.30261C4.04682 6.38532 4.02433 6.4754 4.02078 6.56722C4.01724 6.65903 4.03271 6.75058 4.06622 6.83613C4.09974 6.92168 4.15058 6.99938 4.21555 7.06435C4.28052 7.12932 4.35822 7.18016 4.44377 7.21368C4.52932 7.24719 4.62087 7.26266 4.71268 7.25912C4.8045 7.25557 4.89459 7.23308 4.9773 7.19307C5.06001 7.15305 5.13355 7.09637 5.19332 7.02659C5.25529 6.9641 5.32903 6.9145 5.41026 6.88066C5.4915 6.84681 5.57864 6.82939 5.66665 6.82939C5.75466 6.82939 5.84179 6.84681 5.92303 6.88066C6.00427 6.9145 6.07801 6.9641 6.13998 7.02659ZM11.7467 6.08659C11.3651 5.72458 10.8592 5.52277 10.3333 5.52277C9.80738 5.52277 9.3015 5.72458 8.91998 6.08659C8.81077 6.21412 8.75369 6.37817 8.76018 6.54595C8.76666 6.71374 8.83621 6.8729 8.95494 6.99163C9.07367 7.11036 9.23283 7.17991 9.40061 7.18639C9.5684 7.19287 9.73245 7.1358 9.85998 7.02659C9.92196 6.9641 9.99569 6.9145 10.0769 6.88066C10.1582 6.84681 10.2453 6.82939 10.3333 6.82939C10.4213 6.82939 10.5085 6.84681 10.5897 6.88066C10.6709 6.9145 10.7447 6.9641 10.8066 7.02659C10.9316 7.15075 11.1005 7.22045 11.2767 7.22045C11.4528 7.22045 11.6217 7.15075 11.7467 7.02659C11.8708 6.90168 11.9405 6.73271 11.9405 6.55659C11.9405 6.38046 11.8708 6.21149 11.7467 6.08659ZM7.99998 1.33325C6.68144 1.33325 5.39251 1.72425 4.29618 2.45679C3.19985 3.18933 2.34537 4.23052 1.84079 5.4487C1.3362 6.66687 1.20418 8.00731 1.46141 9.30052C1.71865 10.5937 2.35359 11.7816 3.28594 12.714C4.21829 13.6463 5.40617 14.2813 6.69938 14.5385C7.99259 14.7957 9.33303 14.6637 10.5512 14.1591C11.7694 13.6545 12.8106 12.8 13.5431 11.7037C14.2757 10.6074 14.6666 9.31846 14.6666 7.99992C14.6666 7.12444 14.4942 6.25753 14.1592 5.4487C13.8241 4.63986 13.3331 3.90493 12.714 3.28587C12.095 2.66682 11.36 2.17575 10.5512 1.84072C9.74237 1.50569 8.87546 1.33325 7.99998 1.33325ZM7.99998 13.3333C6.94515 13.3333 5.914 13.0205 5.03694 12.4344C4.15988 11.8484 3.47629 11.0154 3.07263 10.0409C2.66896 9.06636 2.56334 7.994 2.76913 6.95944C2.97492 5.92487 3.48287 4.97456 4.22875 4.22868C4.97463 3.4828 5.92494 2.97485 6.9595 2.76906C7.99407 2.56328 9.06642 2.66889 10.041 3.07256C11.0155 3.47623 11.8485 4.15982 12.4345 5.03688C13.0205 5.91394 13.3333 6.94509 13.3333 7.99992C13.3333 9.41441 12.7714 10.771 11.7712 11.7712C10.771 12.7713 9.41447 13.3333 7.99998 13.3333Z"
      fill="#F9FAFB" />
  </symbol>


</svg>